HIERARCHY
ROOT hip
{
	OFFSET 0.000000 0.000000 0.000000 
	CHANNELS 6 Xposition Yposition Zposition Zrotation Yrotation Xrotation
	JOINT abdomen
	{
		OFFSET 0.000000 20.688101 -0.731520 
		CHANNELS 3 Zrotation Xrotation Yrotation
		JOINT chest
		{
			OFFSET 0.000000 11.704300 -0.487680 
			CHANNELS 3 Zrotation Xrotation Yrotation
			JOINT neck
			{
				OFFSET 0.000000 22.189400 -2.194560 
				CHANNELS 3 Zrotation Xrotation Yrotation
				JOINT head
				{
					OFFSET -0.243840 7.071330 1.219200 
					CHANNELS 3 Zrotation Xrotation Yrotation
					End Site
					{
						OFFSET 1.000000 0.000000 0.000000 
					}
				}
			}
			JOINT rCollar
			{
				OFFSET -2.682240 19.263399 -4.876800 
				CHANNELS 3 Zrotation Xrotation Yrotation
				JOINT rShldr
				{
					OFFSET -8.778240 -1.950730 1.463040 
					CHANNELS 3 Zrotation Xrotation Yrotation
					JOINT rForeArm
					{
						OFFSET -28.174200 -1.711500 0.487680 
						CHANNELS 3 Zrotation Xrotation Yrotation
						JOINT rHand
						{
							OFFSET -22.587900 0.773209 7.071360 
							CHANNELS 3 Zrotation Xrotation Yrotation
							JOINT rThumb1
							{
								OFFSET -1.219200 -0.487915 3.413760 
								CHANNELS 3 Zrotation Xrotation Yrotation
								JOINT rThumb2
								{
									OFFSET -3.370350 -0.524490 3.413760 
									CHANNELS 3 Zrotation Xrotation Yrotation
									End Site
									{
										OFFSET -1.782710 -1.182140 1.430490 
									}
								}
							}
							JOINT rIndex1
							{
								OFFSET -7.759470 0.938293 5.608320 
								CHANNELS 3 Zrotation Xrotation Yrotation
								JOINT rIndex2
								{
									OFFSET -2.540570 -0.884171 1.565380 
									CHANNELS 3 Zrotation Xrotation Yrotation
									End Site
									{
										OFFSET -1.625190 -0.234802 1.165020 
									}
								}
							}
							JOINT rMid1
							{
								OFFSET -8.247140 1.182130 3.413760 
								CHANNELS 3 Zrotation Xrotation Yrotation
								JOINT rMid2
								{
									OFFSET -3.101650 -0.590103 1.064700 
									CHANNELS 3 Zrotation Xrotation Yrotation
									End Site
									{
										OFFSET -2.485470 -0.328903 0.837420 
									}
								}
							}
							JOINT rRing1
							{
								OFFSET -8.828220 0.546677 1.516780 
								CHANNELS 3 Zrotation Xrotation Yrotation
								JOINT rRing2
								{
									OFFSET -2.609340 -0.819778 -0.019849 
									CHANNELS 3 Zrotation Xrotation Yrotation
									End Site
									{
										OFFSET -2.338420 -0.294052 0.168128 
									}
								}
							}
							JOINT rPinky1
							{
								OFFSET -8.272020 -0.047791 -0.458400 
								CHANNELS 3 Zrotation Xrotation Yrotation
								JOINT rPinky2
								{
									OFFSET -1.827340 -0.647385 -0.700984 
									CHANNELS 3 Zrotation Xrotation Yrotation
									End Site
									{
										OFFSET -1.692250 -0.517670 -0.607171 
									}
								}
							}
						}
					}
				}
			}
			JOINT lCollar
			{
				OFFSET 2.682240 19.263399 -4.876800 
				CHANNELS 3 Zrotation Xrotation Yrotation
				JOINT lShldr
				{
					OFFSET 8.778240 -1.950730 1.463040 
					CHANNELS 3 Zrotation Xrotation Yrotation
					JOINT lForeArm
					{
						OFFSET 28.174200 -1.711500 0.487680 
						CHANNELS 3 Zrotation Xrotation Yrotation
						JOINT lHand
						{
							OFFSET 22.587900 0.773209 7.071360 
							CHANNELS 3 Zrotation Xrotation Yrotation
							JOINT lThumb1
							{
								OFFSET 1.219200 -0.487915 3.413760 
								CHANNELS 3 Zrotation Xrotation Yrotation
								JOINT lThumb2
								{
									OFFSET 3.370350 -0.524490 3.413760 
									CHANNELS 3 Zrotation Xrotation Yrotation
									End Site
									{
										OFFSET 1.782710 -1.182140 1.430490 
									}
								}
							}
							JOINT lIndex1
							{
								OFFSET 7.759470 0.938293 5.608320 
								CHANNELS 3 Zrotation Xrotation Yrotation
								JOINT lIndex2
								{
									OFFSET 2.540570 -0.884171 1.565380 
									CHANNELS 3 Zrotation Xrotation Yrotation
									End Site
									{
										OFFSET 1.625190 -0.234802 1.165020 
									}
								}
							}
							JOINT lMid1
							{
								OFFSET 8.247140 1.182130 3.413760 
								CHANNELS 3 Zrotation Xrotation Yrotation
								JOINT lMid2
								{
									OFFSET 3.101650 -0.590103 1.064700 
									CHANNELS 3 Zrotation Xrotation Yrotation
									End Site
									{
										OFFSET 2.485470 -0.328903 0.837420 
									}
								}
							}
							JOINT lRing1
							{
								OFFSET 8.828220 0.546677 1.516780 
								CHANNELS 3 Zrotation Xrotation Yrotation
								JOINT lRing2
								{
									OFFSET 2.609340 -0.819778 -0.019849 
									CHANNELS 3 Zrotation Xrotation Yrotation
									End Site
									{
										OFFSET 2.338420 -0.294052 0.168128 
									}
								}
							}
							JOINT lPinky1
							{
								OFFSET 8.272020 -0.047791 -0.458400 
								CHANNELS 3 Zrotation Xrotation Yrotation
								JOINT lPinky2
								{
									OFFSET 1.827340 -0.647385 -0.700984 
									CHANNELS 3 Zrotation Xrotation Yrotation
									End Site
									{
										OFFSET 1.692250 -0.517670 -0.607171 
									}
								}
							}
						}
					}
				}
			}
		}
	}
	JOINT rButtock
	{
		OFFSET -8.778240 4.350840 1.219200 
		CHANNELS 3 Zrotation Xrotation Yrotation
		JOINT rThigh
		{
			OFFSET 0.000000 -1.706870 -2.194560 
			CHANNELS 3 Zrotation Xrotation Yrotation
			JOINT rShin
			{
				OFFSET 0.000000 -36.819901 0.731520 
				CHANNELS 3 Zrotation Xrotation Yrotation
				JOINT rFoot
				{
					OFFSET 0.731520 -45.110401 -5.120640 
					CHANNELS 3 Zrotation Xrotation Yrotation
					End Site
					{
						OFFSET -1.122100 -3.699640 12.103000 
					}
				}
			}
		}
	}
	JOINT lButtock
	{
		OFFSET 8.778240 4.350840 1.219200 
		CHANNELS 3 Zrotation Xrotation Yrotation
		JOINT lThigh
		{
			OFFSET 0.000000 -1.706870 -2.194560 
			CHANNELS 3 Zrotation Xrotation Yrotation
			JOINT lShin
			{
				OFFSET 0.000000 -36.819901 0.731520 
				CHANNELS 3 Zrotation Xrotation Yrotation
				JOINT lFoot
				{
					OFFSET -0.731520 -45.110401 -5.120640 
					CHANNELS 3 Zrotation Xrotation Yrotation
					End Site
					{
						OFFSET 1.122100 -3.699640 12.103000 
					}
				}
			}
		}
	}
}
MOTION
Frames: 5
Frame Time: 0.008333
49.879902 83.885399 -75.225899 -5.033100 -37.309399 3.076800 2.559610 0.435223 -2.071940 5.545990 -1.913230 -0.455084 -17.538099 6.040150 -8.692230 20.343300 2.903840 -14.979700 -0.000000 -0.000000 -0.000000 74.931503 2.160010 -4.046860 -12.594700 -5.874480 22.766899 -0.111034 -9.460060 -1.341860 0.000000 0.000000 -0.000000 0.000000 0.000000 -0.000000 0.000000 0.000000 -0.000000 7.730910 5.474880 0.417314 0.000000 0.000000 -0.000000 2.905540 0.965183 0.102902 0.000000 0.000000 -0.000000 10.278600 0.731801 0.025912 0.000000 0.000000 -0.000000 2.221670 -0.733487 -0.208920 -0.000000 -0.000000 -0.000000 -79.477997 25.403700 -2.607080 12.064700 -5.494050 -21.735100 0.225971 13.416100 -1.921100 0.000000 -0.000000 0.000000 0.000000 -0.000000 0.000000 0.000000 -0.000000 0.000000 -7.730910 5.474880 -0.417314 0.000000 -0.000000 0.000000 -2.905540 0.965183 -0.102902 0.000000 -0.000000 0.000000 -10.278600 0.731801 -0.025912 0.000000 -0.000000 0.000000 -2.221670 -0.733487 0.208920 -0.000000 0.000000 -0.000000 -1.965620 -18.232700 7.609630 -0.235793 35.661999 0.597807 -2.397800 -13.044800 -6.652070 0.000000 0.000000 0.000000 3.073030 -9.711000 -0.039866 0.201037 33.911201 -0.707896 6.748810 -20.190100 15.143100 
49.918400 83.884399 -75.199997 -4.802500 -37.330299 2.919900 2.529660 0.414959 -2.021410 5.567350 -1.930950 -0.439329 -17.656700 6.050000 -8.721030 20.524000 2.937840 -15.032100 -0.000000 -0.000000 -0.000000 74.888100 2.186570 -4.078020 -12.621000 -5.893790 22.818300 -0.115724 -9.663420 -1.371230 0.000000 0.000000 -0.000000 0.000000 0.000000 -0.000000 0.000000 0.000000 -0.000000 7.730910 5.474880 0.417314 0.000000 0.000000 -0.000000 2.905540 0.965183 0.102902 0.000000 0.000000 -0.000000 10.278600 0.731801 0.025912 0.000000 0.000000 -0.000000 2.221670 -0.733487 -0.208920 -0.000000 -0.000000 -0.000000 -79.529099 25.429501 -2.609960 12.034900 -5.473040 -21.677401 0.218409 13.197100 -1.888560 0.000000 0.000000 0.000000 0.000000 -0.000000 0.000000 0.000000 0.000000 0.000000 -7.730910 5.474880 -0.417314 0.000000 0.000000 0.000000 -2.905540 0.965183 -0.102902 0.000000 0.000000 0.000000 -10.278600 0.731801 -0.025912 0.000000 0.000000 0.000000 -2.221670 -0.733487 0.208920 -0.000000 0.000000 -0.000000 -2.016620 -18.243700 7.591200 -0.237133 35.683498 0.597964 -2.403470 -13.029900 -6.673660 0.000000 0.000000 0.000000 3.020320 -9.708960 -0.043700 0.199931 33.918800 -0.708285 6.765460 -20.138599 15.208100 
49.941200 83.881203 -75.196602 -4.729900 -37.318699 2.891700 2.524130 0.379349 -1.931750 5.582480 -1.956930 -0.412159 -17.844299 6.164450 -8.745810 20.758699 2.891610 -15.081100 -0.000000 -0.000000 -0.000000 74.835197 2.261010 -4.158010 -12.665400 -5.926360 22.905199 -0.122922 -9.958850 -1.413990 0.000000 0.000000 -0.000000 0.000000 0.000000 -0.000000 0.000000 0.000000 -0.000000 7.730910 5.474880 0.417314 0.000000 0.000000 -0.000000 2.905540 0.965183 0.102902 0.000000 0.000000 -0.000000 10.278600 0.731801 0.025912 0.000000 0.000000 -0.000000 2.221670 -0.733487 -0.208920 -0.000000 -0.000000 -0.000000 -79.604401 25.500000 -2.591070 12.009300 -5.455030 -21.627800 0.209779 12.940500 -1.850530 0.000000 0.000000 0.000000 0.000000 0.000000 0.000000 0.000000 0.000000 0.000000 -7.730910 5.474880 -0.417314 0.000000 0.000000 0.000000 -2.905540 0.965183 -0.102902 0.000000 0.000000 0.000000 -10.278600 0.731801 -0.025912 0.000000 0.000000 0.000000 -2.221670 -0.733487 0.208920 -0.000000 0.000000 -0.000000 -2.072650 -18.256001 7.566230 -0.238960 35.702999 0.598000 -2.412000 -12.995300 -6.710170 0.000000 0.000000 0.000000 2.951680 -9.696480 -0.061617 0.198739 33.926201 -0.708528 6.807810 -20.072599 15.338300 
49.941101 83.880302 -75.208397 -4.801200 -37.313801 2.939500 2.522530 0.342744 -1.841050 5.596010 -1.982760 -0.384744 -18.035000 6.298330 -8.772170 20.980801 2.817600 -15.131800 -0.000000 -0.000000 -0.000000 74.787399 2.390110 -4.246180 -12.717300 -5.964540 23.007000 -0.131002 -10.271900 -1.459420 0.000000 0.000000 -0.000000 0.000000 0.000000 -0.000000 0.000000 0.000000 -0.000000 7.730910 5.474880 0.417314 0.000000 0.000000 -0.000000 2.905540 0.965183 0.102902 0.000000 0.000000 -0.000000 10.278600 0.731801 0.025912 0.000000 0.000000 -0.000000 2.221670 -0.733487 -0.208920 -0.000000 -0.000000 -0.000000 -79.685204 25.573500 -2.564500 11.984500 -5.437690 -21.579901 0.202866 12.728200 -1.819140 0.000000 0.000000 0.000000 0.000000 0.000000 0.000000 0.000000 0.000000 0.000000 -7.730910 5.474880 -0.417314 0.000000 0.000000 0.000000 -2.905540 0.965183 -0.102902 0.000000 0.000000 0.000000 -10.278600 0.731801 -0.025912 0.000000 0.000000 0.000000 -2.221670 -0.733487 0.208920 -0.000000 0.000000 -0.000000 -2.127930 -18.266100 7.541330 -0.240597 35.721001 0.598102 -2.421340 -12.961700 -6.749730 0.000000 0.000000 0.000000 2.882320 -9.683370 -0.086982 0.198074 33.930599 -0.708704 6.850450 -20.015400 15.464700 
49.943802 83.880203 -75.216103 -4.869500 -37.267399 2.976900 2.504220 0.319501 -1.787370 5.612510 -2.000020 -0.368252 -18.163200 6.366500 -8.805630 21.123400 2.768200 -15.189300 -0.000000 -0.000000 -0.000000 74.758797 2.580660 -4.301850 -12.766400 -6.000760 23.103300 -0.137904 -10.528100 -1.496680 0.000000 -0.000000 -0.000000 0.000000 -0.000000 -0.000000 0.000000 -0.000000 -0.000000 7.730910 5.474880 0.417314 0.000000 -0.000000 -0.000000 2.905540 0.965183 0.102902 0.000000 -0.000000 -0.000000 10.278600 0.731801 0.025912 0.000000 -0.000000 -0.000000 2.221670 -0.733487 -0.208920 -0.000000 -0.000000 -0.000000 -79.752701 25.608101 -2.544380 11.957300 -5.418710 -21.527399 0.200116 12.642000 -1.806420 0.000000 0.000000 0.000000 0.000000 0.000000 0.000000 0.000000 0.000000 0.000000 -7.730910 5.474880 -0.417314 0.000000 0.000000 0.000000 -2.905540 0.965183 -0.102902 0.000000 0.000000 0.000000 -10.278600 0.731801 -0.025912 0.000000 0.000000 0.000000 -2.221670 -0.733487 0.208920 -0.000000 0.000000 -0.000000 -2.176660 -18.270201 7.523130 -0.241373 35.737598 0.598462 -2.429540 -12.950100 -6.780470 0.000000 0.000000 0.000000 2.827450 -9.679460 -0.113162 0.198548 33.929298 -0.708894 6.868370 -19.990601 15.517900 
